<svg width="24" height="24" viewBox="0 0 24 24" fill="none" xmlns="http://www.w3.org/2000/svg">
<path d="M5.42933 3.55016C8.08917 5.55955 10.9501 9.63378 12.0005 11.8202C13.051 9.63394 15.9118 5.55951 18.5717 3.55016C20.4909 2.10025 23.6005 0.978402 23.6005 4.54819C23.6005 5.26113 23.1943 10.5372 22.9561 11.3938C22.128 14.3718 19.1103 15.1313 16.4261 14.6716C21.1181 15.4752 22.3117 18.1369 19.734 20.7987C14.8384 25.8539 12.6976 19.5303 12.1488 17.91C12.0482 17.6129 12.0011 17.474 12.0005 17.5921C11.9998 17.474 11.9527 17.6129 11.8521 17.91C11.3036 19.5303 9.16283 25.854 4.26695 20.7987C1.68919 18.1369 2.88275 15.475 7.57483 14.6716C4.89051 15.1313 1.87283 14.3717 1.04483 11.3938C0.806583 10.5371 0.400391 5.26105 0.400391 4.54819C0.400391 0.978402 3.51007 2.10025 5.42919 3.55016H5.42933Z" fill="white"/>
</svg>
