<svg width="29" height="30" viewBox="0 0 29 30" fill="none" xmlns="http://www.w3.org/2000/svg">
<path d="M2.40833 10.9436C2.40833 10.5218 2.40833 10.3109 2.42593 10.1332C2.59569 8.41977 3.95118 7.06429 5.66463 6.89452C5.84229 6.87692 6.06459 6.87692 6.5092 6.87692C6.68051 6.87692 6.76617 6.87692 6.8389 6.87251C7.76758 6.81627 8.5808 6.23014 8.92783 5.3669C8.95501 5.2993 8.98041 5.22309 9.03121 5.07068C9.08202 4.91826 9.10742 4.84206 9.1346 4.77445C9.48163 3.91122 10.2948 3.32508 11.2235 3.26884C11.2963 3.26443 11.3766 3.26443 11.5372 3.26443H17.3626C17.5233 3.26443 17.6036 3.26443 17.6764 3.26884C18.605 3.32508 19.4183 3.91122 19.7653 4.77445C19.7925 4.84206 19.8179 4.91826 19.8687 5.07068C19.9195 5.22309 19.9449 5.2993 19.972 5.3669C20.3191 6.23014 21.1323 6.81627 22.061 6.87251C22.1337 6.87692 22.2194 6.87692 22.3907 6.87692C22.8353 6.87692 23.0576 6.87692 23.2352 6.89452C24.9487 7.06429 26.3042 8.41977 26.474 10.1332C26.4916 10.3109 26.4916 10.5218 26.4916 10.9436V20.3635C26.4916 22.3867 26.4916 23.3983 26.0978 24.1711C25.7515 24.8508 25.1988 25.4034 24.5191 25.7498C23.7463 26.1435 22.7348 26.1435 20.7116 26.1435H8.1883C6.16512 26.1435 5.15353 26.1435 4.38078 25.7498C3.70104 25.4034 3.1484 24.8508 2.80206 24.1711C2.40833 23.3983 2.40833 22.3867 2.40833 20.3635V10.9436Z" stroke="#182230" stroke-width="2.40832" stroke-linecap="round" stroke-linejoin="round"/>
<path d="M14.4499 20.7248C17.1101 20.7248 19.2666 18.5683 19.2666 15.9081C19.2666 13.248 17.1101 11.0915 14.4499 11.0915C11.7898 11.0915 9.63329 13.248 9.63329 15.9081C9.63329 18.5683 11.7898 20.7248 14.4499 20.7248Z" stroke="#182230" stroke-width="2.40832" stroke-linecap="round" stroke-linejoin="round"/>
</svg>
