<svg width="30" height="30" viewBox="0 0 30 30" fill="none" xmlns="http://www.w3.org/2000/svg">
<path d="M9.85986 10.4894H9.8719M2.63489 7.11775L2.63489 12.5058C2.63489 13.0948 2.63489 13.3894 2.70143 13.6665C2.76043 13.9123 2.85773 14.1472 2.98978 14.3627C3.13871 14.6057 3.34697 14.814 3.7635 15.2305L12.9978 24.4648C14.4284 25.8954 15.1437 26.6107 15.9685 26.8787C16.694 27.1144 17.4756 27.1144 18.2011 26.8787C19.026 26.6107 19.7413 25.8954 21.1719 24.4648L23.8352 21.8014C25.2658 20.3708 25.9811 19.6555 26.2491 18.8307C26.4849 18.1051 26.4849 17.3236 26.2491 16.5981C25.9811 15.7732 25.2658 15.0579 23.8352 13.6273L14.6009 4.39305C14.1844 3.97652 13.9762 3.76826 13.7331 3.61932C13.5176 3.48728 13.2827 3.38997 13.037 3.33098C12.7598 3.26443 12.4653 3.26443 11.8762 3.26443L6.4882 3.26444C5.13942 3.26444 4.46502 3.26444 3.94986 3.52693C3.4967 3.75782 3.12827 4.12625 2.89738 4.5794C2.63489 5.09457 2.63489 5.76896 2.63489 7.11775ZM10.4619 10.4894C10.4619 10.8219 10.1924 11.0915 9.85986 11.0915C9.52734 11.0915 9.25778 10.8219 9.25778 10.4894C9.25778 10.1569 9.52734 9.88732 9.85986 9.88732C10.1924 9.88732 10.4619 10.1569 10.4619 10.4894Z" stroke="#182230" stroke-width="2.40832" stroke-linecap="round" stroke-linejoin="round"/>
</svg>
