<svg width="30" height="30" viewBox="0 0 30 30" fill="none" xmlns="http://www.w3.org/2000/svg">
<path d="M26.7967 11.6109C26.7967 10.8814 26.7967 10.5167 26.6525 10.3478C26.5273 10.2012 26.3395 10.1235 26.1474 10.1386C25.926 10.156 25.6681 10.4139 25.1522 10.9298L20.7759 15.3061L25.1522 19.6824C25.6681 20.1982 25.926 20.4561 26.1474 20.4735C26.3395 20.4887 26.5273 20.4109 26.6525 20.2643C26.7967 20.0954 26.7967 19.7307 26.7967 19.0012V11.6109Z" stroke="#182230" stroke-width="2.40832" stroke-linecap="round" stroke-linejoin="round"/>
<path d="M2.7135 12.6569C2.7135 10.6337 2.7135 9.62213 3.10724 8.84937C3.45358 8.16964 4.00622 7.617 4.68595 7.27066C5.4587 6.87692 6.47029 6.87692 8.49348 6.87692H14.9959C17.0191 6.87692 18.0307 6.87692 18.8035 7.27066C19.4832 7.617 20.0358 8.16964 20.3822 8.84937C20.7759 9.62213 20.7759 10.6337 20.7759 12.6569V17.9552C20.7759 19.9784 20.7759 20.99 20.3822 21.7627C20.0358 22.4425 19.4832 22.9951 18.8035 23.3414C18.0307 23.7352 17.0191 23.7352 14.9959 23.7352H8.49348C6.47029 23.7352 5.4587 23.7352 4.68595 23.3414C4.00622 22.9951 3.45358 22.4425 3.10724 21.7627C2.7135 20.99 2.7135 19.9784 2.7135 17.9552V12.6569Z" stroke="#182230" stroke-width="2.40832" stroke-linecap="round" stroke-linejoin="round"/>
</svg>
